<?xml version="1.0" standalone="no"?>
<!DOCTYPE svg PUBLIC "-//W3C//DTD SVG 20010904//EN"
 "http://www.w3.org/TR/2001/REC-SVG-20010904/DTD/svg10.dtd">
<svg version="1.0" xmlns="http://www.w3.org/2000/svg"
 viewBox="0 0 796.000000 240.000000"
 preserveAspectRatio="xMidYMid meet">

<g transform="translate(0.000000,240.000000) scale(0.100000,-0.100000)"
fill="#000000" stroke="none">
<path d="M3002 2259 c-232 -29 -436 -167 -530 -359 -61 -123 -76 -192 -76
-340 -1 -206 53 -350 174 -470 125 -123 280 -183 470 -182 173 0 314 62 395
173 20 27 41 49 46 49 21 0 -2 -203 -37 -320 -55 -188 -176 -290 -343 -290
-56 0 -79 5 -128 30 -63 32 -95 64 -132 137 l-21 43 -189 0 c-103 0 -190 -2
-193 -6 -3 -3 2 -35 12 -73 56 -220 218 -380 450 -446 77 -22 312 -25 395 -6
143 34 313 150 394 270 151 222 198 434 188 849 -6 255 -14 308 -67 452 -93
257 -295 441 -525 480 -79 13 -214 18 -283 9z m262 -359 c168 -80 240 -307
157 -495 -25 -56 -96 -123 -160 -153 -72 -33 -203 -35 -272 -5 -53 24 -133
101 -160 155 -40 78 -43 252 -6 339 30 72 122 155 198 178 58 18 187 7 243
-19z"/>
<path d="M90 1231 c0 -555 3 -1012 8 -1014 4 -3 95 -6 202 -8 l195 -4 0 1015
0 1015 -202 3 -203 2 0 -1009z"/>
<path d="M4060 2065 l0 -175 383 -1 c210 -1 423 -4 472 -8 82 -5 90 -8 87 -26
-4 -22 -70 -164 -367 -785 -114 -239 -252 -529 -307 -644 -76 -160 -96 -211
-86 -217 7 -5 103 -9 213 -9 l200 0 179 393 c99 215 276 604 395 862 l215 470
4 158 4 157 -696 0 -696 0 0 -175z"/>
<path d="M6443 1715 c-114 -32 -214 -99 -270 -183 l-38 -57 -3 113 -3 112
-199 0 -200 0 0 -750 0 -750 198 6 c108 4 198 7 199 8 1 1 6 222 11 491 7 428
11 495 25 525 47 98 137 158 250 167 124 10 230 -45 279 -145 l23 -47 3 -495
c2 -272 7 -498 11 -503 4 -4 96 -4 204 0 l197 6 0 416 c-1 521 -10 703 -40
789 -49 140 -153 246 -282 287 -74 24 -295 30 -365 10z"/>
<path d="M1902 1703 c-43 -3 -55 -8 -62 -26 -8 -18 -178 -585 -300 -1000 -13
-43 -26 -74 -30 -70 -4 4 -31 89 -59 188 -117 407 -265 890 -275 897 -13 9
-410 11 -419 2 -3 -3 15 -63 40 -132 24 -70 137 -392 249 -717 112 -324 208
-599 213 -611 9 -20 19 -21 242 -28 128 -3 236 -3 240 1 5 5 35 85 67 178 100
286 442 1249 452 1273 22 52 22 52 -147 50 -87 -1 -182 -3 -211 -5z"/>
<path d="M7575 651 c-79 -20 -156 -91 -175 -160 -18 -66 2 -157 48 -218 57
-77 201 -102 298 -52 71 36 106 96 112 194 4 67 2 78 -22 119 -52 88 -168 140
-261 117z"/>
</g>
</svg>
